<?xml version="1.0" encoding="utf-8"?>
<!-- Generator: Adobe Illustrator 16.0.0, SVG Export Plug-In . SVG Version: 6.00 Build 0)  -->
<!DOCTYPE svg PUBLIC "-//W3C//DTD SVG 1.1//EN" "http://www.w3.org/Graphics/SVG/1.1/DTD/svg11.dtd">
<svg version="1.1" id="Layer_1" xmlns="http://www.w3.org/2000/svg" xmlns:xlink="http://www.w3.org/1999/xlink" x="0px" y="0px"
	 width="50px" height="50px" viewBox="515 515 50 50" enable-background="new 515 515 50 50" xml:space="preserve">
<path fill="#E0302B" d="M519.283,523.003c0.482-1.019,1.508-1.667,2.635-1.667h31.497c1.13,0,2.151,0.649,2.632,1.667
	c0.488,1.019,0.336,2.223-0.438,3.095l-7.706,9.498c-5.848,1.203-10.302,6.373-10.302,12.57c0,1.997,0.525,3.893,1.341,5.577
	c-0.124-0.059-0.233-0.131-0.343-0.211l-4.666-3.499c-0.59-0.438-0.933-1.131-0.933-1.867v-5.767l-13.339-16.301
	C518.947,525.226,518.8,524.021,519.283,523.003L519.283,523.003z M539.934,548.166c0-5.796,4.768-10.499,10.565-10.499
	s10.499,4.703,10.499,10.499s-4.702,10.499-10.499,10.499S539.934,553.962,539.934,548.166z M554.822,545.49
	c0.459-0.452,0.459-1.195,0-1.648c-0.451-0.458-1.195-0.458-1.647,0l-2.676,2.677l-2.677-2.677c-0.452-0.458-1.195-0.458-1.647,0
	c-0.459,0.453-0.459,1.196,0,1.648l2.677,2.676l-2.677,2.676c-0.459,0.452-0.459,1.195,0,1.647c0.452,0.46,1.195,0.46,1.647,0
	l2.677-2.676l2.676,2.676c0.452,0.46,1.196,0.46,1.647,0c0.459-0.452,0.459-1.195,0-1.647l-2.676-2.676L554.822,545.49z"/>
</svg>
